<?xml version="1.0" encoding="UTF-8"?>
<svg xmlns="http://www.w3.org/2000/svg" viewBox="0 0 64 64" width="64" height="64" role="img" aria-label="Popcorn icon">
  <title>Popcorn</title>
  <!-- Simple, compact popcorn icon (original) -->
  <g fill="none" fill-rule="evenodd">
    <path d="M16 36c0 0-6-2-6-8 0-7 6-10 10-10 0 0 1-8 10-8s10 8 10 8c4 0 10 3 10 10 0 6-6 8-6 8H16z" fill="#FFEE93"/>
    <path d="M12 36c0 0 0 8 6 10h28c6-2 6-10 6-10H12z" fill="#F5C16C"/>
    <path d="M22 26c0-3 3-6 6-6s6 3 6 6" stroke="#D97E2E" stroke-width="1.6" stroke-linecap="round" stroke-linejoin="round"/>
    <circle cx="20" cy="22" r="2" fill="#FFD54A"/>
    <circle cx="30" cy="18" r="2.2" fill="#FFD54A"/>
    <circle cx="38" cy="22" r="2" fill="#FFD54A"/>
    <rect x="20" y="40" width="24" height="12" rx="3" fill="#E94E1B"/>
    <path d="M24 40v12M30 40v12M36 40v12" stroke="#FFDAB3" stroke-width="1.6" stroke-linecap="round"/>
  </g>
</svg>
